<svg width="797" height="597" viewBox="0 0 797 597" fill="none" xmlns="http://www.w3.org/2000/svg">
<path d="M724.905 501.698C720.908 537.928 750.884 544.937 733.898 595H715.913C731.581 545.437 702.923 539.43 708.918 502.296C714.448 502.508 719.784 502.312 724.905 501.698Z" fill="#474747"/>
<path d="M794.848 406.261C798.845 327.161 723.406 337.675 679.942 348.188C655.462 354.48 658.959 495.461 683.939 498.879C692.621 500.843 700.969 501.992 708.918 502.296C714.448 502.508 719.784 502.312 724.905 501.698C764.945 496.897 791.801 466.564 794.848 406.261Z" fill="#474747"/>
<path d="M724.905 501.698C764.945 496.897 791.801 466.564 794.848 406.261C798.845 327.161 723.406 337.675 679.942 348.188C655.462 354.48 658.959 495.461 683.939 498.879C692.621 500.843 700.969 501.992 708.918 502.296M724.905 501.698C720.908 537.928 750.884 544.937 733.898 595H715.913C731.581 545.437 702.923 539.43 708.918 502.296M724.905 501.698C719.784 502.312 714.448 502.508 708.918 502.296" stroke="#7F7F7F" stroke-width="4"/>
<path d="M474.111 264.582C509.082 206.509 520.573 195.995 566.535 191.99C637.976 175.754 677.907 198.432 701.424 238.834C716.412 264.582 701.424 282.389 692.931 269.588C693.567 275.963 693.686 286.147 693.297 298.625C697.427 324.658 710.417 427.288 687.935 526.413C672.448 520.906 625.486 522.909 577.026 548.942C528.566 574.975 503.185 574.474 500.589 548.942C497.992 523.409 503.547 488.866 509.312 482.858C504.345 466.714 503.48 443.541 507.084 427.288C508.698 426.749 510.341 426.072 512.008 425.285C512.008 417.627 505.42 404.303 500.832 395.022L500.589 394.531C486.573 404.043 482.104 410.767 435.143 441.306C388.181 471.844 350.712 460.33 335.225 441.306C319.983 422.582 334.259 371.855 332.809 347.347C332.755 346.968 332.727 346.581 332.727 346.185C332.727 338.576 358.206 328.63 363.202 327.963C372.195 325.024 403.669 321.654 405.667 327.963C406.452 340.462 406.666 359.486 404.168 373.003C426.65 354.196 439.14 322.656 474.111 264.582Z" fill="white"/>
<path d="M404.168 373.003C426.65 354.196 439.14 322.656 474.111 264.582C509.082 206.509 520.573 195.995 566.535 191.99C637.976 175.754 677.907 198.432 701.424 238.834C716.412 264.582 701.424 282.389 692.931 269.588M404.168 373.003C402.965 379.512 401.171 386.521 394.676 394.531M404.168 373.003C406.666 359.486 406.452 340.462 405.667 327.963M404.168 373.003C411.662 378.01 417.157 388.523 418.157 400.038M405.667 327.963C406.183 336.173 390.679 348.188 369.697 354.196C348.714 360.203 332.727 355.697 332.727 346.185M405.667 327.963C403.669 321.654 372.195 325.024 363.202 327.963C358.206 328.63 332.727 338.576 332.727 346.185M332.727 346.185C334.725 370.216 319.738 422.281 335.225 441.306C350.712 460.33 388.181 471.844 435.143 441.306C482.104 410.767 486.573 404.043 500.589 394.531M692.931 269.588C692.931 253.295 671.948 220.31 643.472 207.294M692.931 269.588C693.567 275.963 693.686 286.147 693.297 298.625M512.008 425.285C510.341 426.072 508.698 426.749 507.084 427.288C503.48 443.541 504.345 466.714 509.312 482.858M512.008 425.285C512.008 417.491 505.184 403.827 500.589 394.531M512.008 425.285C537.059 422.566 551.047 408.048 579.524 416.058C574.529 405.044 581.522 389.024 596.51 394.531C596.51 379.011 597.509 365.278 608.001 350.475C619.217 334.649 613.496 325.443 608.001 317.433M500.589 394.531C490.098 373.003 488.099 348.004 490.098 327.963M693.297 298.625C691.852 344.947 675.906 419.356 656.961 449.1C641.973 472.629 623.988 482.858 599.008 482.858C579.524 482.858 538.058 491.653 511.081 487.864C510.443 486.291 509.853 484.616 509.312 482.858M693.297 298.625C697.427 324.658 710.417 427.288 687.935 526.413C672.448 520.906 625.486 522.909 577.026 548.942C528.566 574.975 503.185 574.474 500.589 548.942C497.992 523.409 503.547 488.866 509.312 482.858" stroke="#7F7F7F" stroke-width="4"/>
<path d="M539.009 231.324C528.518 250.348 523.522 274.879 528.518 291.901" stroke="#7F7F7F" stroke-width="4"/>
<path d="M588.968 234.328C571.531 263.365 583.022 292.902 578.525 316.432" stroke="#7F7F7F" stroke-width="4"/>
<path d="M393.481 425.23C423.652 423.535 436.55 451.976 452.628 452.944C480.897 450.025 494.594 438.086 511.08 432.078C527.674 439.838 533.384 469.447 514.577 481.641C493.595 481.641 471.471 483.755 450.946 485.045C431.782 486.496 422.525 465.854 414.404 463.274C406.284 460.693 394.103 465.209 390.693 475.369C387.282 485.529 385.008 486.658 378.025 485.045C378.994 474.733 381.203 467.85 384.236 462.921C379.416 461.812 375.228 467.909 372.828 475.369C369.742 485.368 367.143 486.658 362.109 485.045C361.979 482.537 362.051 480.152 362.296 477.886C359.873 483.983 355.868 484.538 352.202 483.755C352.202 470.224 354.762 465.692 357.561 459.041C348.511 466.801 342.594 467.355 338.722 463.274C357.561 435.207 384.873 425.714 393.481 425.23Z" fill="#E0BEB0"/>
<path d="M384.236 435.207C374.55 438.832 362.686 450.021 357.561 459.041M387.95 445.739C379.323 449.368 364.505 457.433 362.296 477.886M397.906 452.944C392.375 454.053 388.318 456.288 384.236 462.921M362.296 477.886C362.051 480.152 361.979 482.537 362.109 485.045C367.143 486.658 369.742 485.368 372.828 475.369C375.228 467.909 379.416 461.812 384.236 462.921M362.296 477.886C359.873 483.983 355.868 484.538 352.202 483.755C352.202 470.224 354.762 465.692 357.561 459.041M384.236 462.921C381.203 467.85 378.994 474.733 378.025 485.045C385.008 486.658 387.282 485.529 390.693 475.369C394.103 465.209 406.284 460.693 414.404 463.274C422.525 465.854 431.782 486.496 450.946 485.045C471.471 483.755 493.595 481.641 514.577 481.641C533.384 469.447 527.674 439.838 511.08 432.078C494.594 438.086 480.897 450.025 452.628 452.944C436.55 451.976 423.652 423.535 393.481 425.23C384.873 425.714 357.561 435.207 338.722 463.274C342.594 467.355 348.511 466.801 357.561 459.041" stroke="#7F7F7F" stroke-width="4"/>
<path d="M458.623 449.1C465.118 455.608 465.118 485.479 458.623 487.649C465.118 487.649 468.115 487.148 472.612 486.647C479.606 484.144 478.107 453.606 471.113 446.597C466.617 448.099 465.118 448.099 458.623 449.1Z" fill="#DDDDDD"/>
<path d="M458.623 487.649C465.118 485.479 465.118 455.608 458.623 449.1C465.118 448.099 466.617 448.099 471.113 446.597C478.107 453.606 479.606 484.144 472.612 486.647C468.115 487.148 465.118 487.649 458.623 487.649ZM458.623 487.649C457.124 488.149 455.626 487.148 455.126 485.145" stroke="#7F7F7F" stroke-width="4"/>
<path d="M457.079 459.23L454.762 452.654C453.68 449.581 455.78 446.31 459.025 446.014L470.2 444.996C472.822 444.757 475.294 446.256 476.294 448.691L479.02 455.325C480.302 458.445 478.19 461.913 474.829 462.206L463.259 463.214C460.531 463.452 457.988 461.813 457.079 459.23Z" fill="#474747" stroke="#7F7F7F" stroke-width="4" stroke-linejoin="round"/>
<path d="M577.026 548.942C625.486 522.909 672.448 520.906 687.935 526.413C696.928 543.935 697.927 567.465 691.932 595H395.675C417.157 579.981 444.502 563.961 502.271 556.451C509.043 574.264 533.892 572.113 577.026 548.942Z" fill="#474747" stroke="#7F7F7F" stroke-width="4"/>
<rect x="63.9473" y="486.647" width="362.702" height="13.0165" rx="4" fill="#C4C4C4" stroke="#7F7F7F" stroke-width="4"/>
<path d="M259.787 486.647H426.65V495.664C426.65 497.873 424.859 499.664 422.65 499.664H263.787C261.578 499.664 259.787 497.873 259.787 495.664V486.647Z" fill="#C4C4C4" stroke="#7F7F7F" stroke-width="4"/>
<path d="M2.64252 316.325C1.34304 312.438 4.2351 308.422 8.33283 308.422H190.079C193.52 308.422 196.575 310.622 197.666 313.885L257.144 491.761C258.444 495.647 255.552 499.664 251.454 499.664H69.7079C66.2672 499.664 63.2119 497.464 62.1208 494.201L2.64252 316.325Z" fill="#C4C4C4" stroke="#7F7F7F" stroke-width="4"/>
<rect width="53.4177" height="53.4996" rx="26.7089" transform="matrix(0.83036 -0.325264 0.399446 1.02232 132.891 354.846)" fill="#23BC8E"/>
<path fill-rule="evenodd" clip-rule="evenodd" d="M156.976 357.976C157.648 355.87 159.749 355.047 161.67 356.137L179.1 366.036L177.474 371.133L170.505 367.175L168.472 373.547L163.826 370.909L165.859 364.537L161.212 361.898L158.367 370.819L153.721 368.18L156.976 357.976ZM174.51 389.029C173.838 391.135 171.736 391.958 169.816 390.867L152.386 380.969L154.012 375.872L160.981 379.829L163.014 373.458L167.66 376.096L165.627 382.468L170.273 385.106L173.119 376.186L177.765 378.824L174.51 389.029Z" fill="white"/>
<path d="M338.315 354.196C344.75 357.573 356.188 358.063 369.697 354.196C380.151 351.202 389.245 346.718 395.675 341.956C400.671 315.198 394.676 310.14 407.665 272.592C420.655 235.045 411.163 232.041 405.667 213.017C400.172 193.993 383.185 192.491 361.703 219.024C340.221 245.558 365.2 252.066 368.198 276.597C370.596 296.222 351.94 333.836 338.315 354.196Z" fill="#E0BEB0"/>
<path d="M366.699 227.319C378.19 227.82 387.183 228.821 388.681 240.836C390.18 252.851 388.681 257.357 381.687 255.355C374.693 253.352 377.191 249.848 375.192 243.339C373.594 238.133 366.533 237.832 363.202 238.333M374.193 217.306C384.185 215.805 392.512 221.145 393.677 223.815M369.697 354.196C356.188 358.063 344.75 357.573 338.315 354.196C351.94 333.836 370.596 296.222 368.198 276.597C365.2 252.066 340.221 245.558 361.703 219.024C383.185 192.491 400.172 193.993 405.667 213.017C411.163 232.041 420.655 235.045 407.665 272.592C394.676 310.14 400.671 315.198 395.675 341.956C389.245 346.718 380.151 351.202 369.697 354.196Z" stroke="#7F7F7F" stroke-width="4"/>
<path d="M469.115 112.674C451.63 112.674 453.609 99.1572 453.609 91.1447H484.103C482.604 105.661 482.604 112.674 469.115 112.674Z" fill="white" fill-opacity="0.25"/>
<path d="M453.609 91.1447C453.609 99.1572 451.63 112.674 469.115 112.674C482.604 112.674 482.604 105.661 484.103 91.1447H453.609ZM453.609 91.1447H450.111" stroke="#7F7F7F" stroke-width="4"/>
<path d="M464.42 127.154C463.694 122.201 479.02 102.741 482.4 63.7876C489.164 41.0339 525.046 20.5727 551.123 40.011C577.2 59.4492 570.944 85.6702 573.205 121.77C575.466 157.869 597.699 187.861 613.921 198.629C592.29 206.079 571.641 227.116 555.862 257.269C547.829 272.619 556.201 221.293 553.242 211.826C546.587 190.542 539.975 187.887 537.698 172.353C530.676 179.005 521.645 183.17 510.072 183.686C480.473 185.006 483.867 149.592 484.641 130.756C473.563 134.411 465.367 133.612 464.42 127.154Z" fill="#E0BEB0"/>
<path d="M557.896 127.565C554.697 145.601 548.635 161.993 537.698 172.353M537.698 172.353C530.676 179.005 521.645 183.17 510.072 183.686C480.473 185.006 483.867 149.592 484.641 130.756C473.563 134.411 465.367 133.612 464.42 127.154C463.694 122.201 479.02 102.741 482.4 63.7876C489.164 41.0339 525.046 20.5727 551.123 40.011C577.2 59.4492 570.944 85.6702 573.205 121.77C575.466 157.869 597.699 187.861 613.921 198.629C592.29 206.079 571.641 227.116 555.862 257.269C547.829 272.619 556.201 221.293 553.242 211.826C546.587 190.542 539.975 187.887 537.698 172.353Z" stroke="#7F7F7F" stroke-width="4"/>
<path d="M501.588 143.213C511.58 144.715 518.074 140.71 522.071 134.201" stroke="#7F7F7F" stroke-width="4"/>
<path d="M525.845 91.1447H488.875C488.542 97.1523 488.875 115.175 506.565 115.175C527.843 115.175 525.845 96.8185 525.845 91.1447Z" fill="white" fill-opacity="0.25"/>
<path d="M453.609 91.1447H488.875M453.609 91.1447C453.609 99.1572 451.63 112.674 469.115 112.674M453.609 91.1447H450.111M525.845 91.1447H488.875M525.845 91.1447C525.845 96.8185 527.843 115.175 506.565 115.175C488.875 115.175 488.542 97.1523 488.875 91.1447M525.845 91.1447H530.545" stroke="#7F7F7F" stroke-width="4"/>
<path d="M560.595 77.0732C574.041 82.6843 567.128 121.652 571.795 122.483C578.714 121.465 578.414 98.7388 579.986 85.3513C581.559 71.9638 581.679 48.6698 563.031 31.6803C546.546 26.0104 534.739 41.9163 531.307 49.5055C537.964 53.5857 537.352 59.7478 537.117 71.9265C536.883 84.1051 533.755 97.2156 542.942 97.8874C552.13 98.5592 547.148 71.4621 560.595 77.0732Z" fill="#474747" stroke="#7F7F7F" stroke-width="4"/>
<path d="M563.032 31.6803C546.547 26.0104 534.74 41.9163 531.308 49.5055C519.286 46.7208 508.57 52.8519 486.777 62.6375C475.001 67.9251 455.402 54.4998 447 39.5001C436.001 24.5001 429.501 25.5001 429.501 24.5001C429.5 18.0001 442.5 17.3198 458.5 24.5001C474.5 31.6803 471 23.5003 466 17C464.462 15 471 11 489 17.0001C502.813 21.6043 519.07 13.2605 530.035 13.2605C545.576 12.4913 561.217 19.2973 563.032 31.6803Z" fill="#474747" stroke="#7F7F7F" stroke-width="4"/>
<path fill-rule="evenodd" clip-rule="evenodd" d="M443.614 204.31C444.238 199.913 431.877 194.456 416.005 192.121C400.132 189.787 386.759 191.459 386.134 195.856L386.133 195.86L377.713 255.128C377.088 259.525 389.449 264.982 405.322 267.317C421.195 269.651 434.568 267.979 435.193 263.582L443.614 204.31Z" fill="white"/>
<path d="M418.74 179.987C425.576 169.319 417.372 163.753 409.169 150.303C400.965 136.852 399.598 118.763 416.005 107.167M427.15 258.296C420.208 255.128 410.23 253.039 398.949 252.163M443.614 204.31C444.238 199.913 431.877 194.456 416.005 192.121C400.132 189.787 386.759 191.459 386.134 195.856L386.133 195.86L377.713 255.128C377.088 259.525 389.449 264.982 405.322 267.317C421.195 269.651 434.568 267.979 435.193 263.582L443.614 204.31Z" stroke="#7F7F7F" stroke-width="4" stroke-linejoin="round"/>
</svg>
