<svg width="208" height="41" fill="none" xmlns="http://www.w3.org/2000/svg">
  <path d="M207.249 10v20h-7.216v-2.205h4.566v-15.59h-4.566V10h7.216zM135.267 30V10h7.216v2.205h-4.566v15.59h4.566V30h-7.216z" fill="#23BC8E"/>
  <path d="M58.637 26.926c-1.188 0-2.071-.311-2.65-.935-.58-.624-.869-1.418-.869-2.383v-5.613H52v-2.56h2.027c.49 0 .839-.097 1.047-.29.207-.193.311-.55.311-1.07v-2.694h3.03v4.053h4.476v2.562h-4.477v6.37h4.477v2.56h-4.254zM71.813 13.964c-.742 0-1.262-.148-1.559-.445a1.604 1.604 0 0 1-.423-1.114v-.646c0-.445.141-.816.423-1.113.297-.297.817-.446 1.56-.446.742 0 1.254.149 1.536.446.297.297.446.668.446 1.113v.646c0 .43-.149.802-.446 1.114-.282.297-.794.445-1.537.445zm-5.3 10.401h3.652v-6.37h-3.652v-2.56h6.948v8.93h3.386v2.561H66.513v-2.56zM79.22 26.926V15.434h3.297v2.094h.133c.134-.327.297-.631.49-.913a3.251 3.251 0 0 1 1.649-1.248c.37-.133.787-.2 1.247-.2.55 0 1.054.096 1.514.29.46.178.854.452 1.18.823.327.372.58.825.758 1.36.193.534.29 1.15.29 1.848v7.438H86.48v-6.993c0-1.485-.646-2.227-1.937-2.227-.253 0-.505.037-.758.111a1.74 1.74 0 0 0-.645.312 1.548 1.548 0 0 0-.468.512 1.626 1.626 0 0 0-.156.735v7.55H79.22zM92.575 10.445h3.296V19.8h.156l1.537-1.804 2.405-2.56h3.787l-4.455 4.542 4.922 6.95h-3.92l-3.34-5.079-1.092 1.092v3.986h-3.296v-16.48zM111.475 27.194c-1.93 0-3.392-.535-4.387-1.604-.995-1.069-1.492-2.524-1.492-4.365 0-.936.126-1.774.378-2.517.268-.757.639-1.396 1.114-1.915a4.653 4.653 0 0 1 1.759-1.203c.698-.282 1.478-.423 2.339-.423s1.633.141 2.316.423a4.698 4.698 0 0 1 1.737 1.158c.475.505.839 1.121 1.092 1.849.267.712.401 1.514.401 2.405v.98h-7.862v.2c0 .743.23 1.344.69 1.805.46.445 1.136.668 2.027.668.683 0 1.269-.127 1.759-.379.49-.267.913-.616 1.27-1.047l1.781 1.938c-.445.55-1.069 1.024-1.87 1.425-.802.401-1.819.602-3.052.602zm-.267-9.666c-.713 0-1.284.222-1.715.668-.415.43-.623 1.017-.623 1.76v.178h4.632v-.179c0-.757-.208-1.35-.623-1.781-.401-.431-.958-.646-1.671-.646zM119.485 24.365h2.651v-6.37h-2.651v-2.56h5.947v3.25h.156c.104-.415.245-.816.423-1.202.193-.4.431-.75.713-1.047a3.191 3.191 0 0 1 1.069-.735c.415-.178.905-.267 1.47-.267h1.091v3.03h-2.45c-.817 0-1.433.244-1.848.734-.416.475-.624 1.062-.624 1.76v3.407h3.786v2.561h-9.733v-2.56zM152.118 26.926c-1.187 0-2.071-.311-2.65-.935-.579-.624-.869-1.418-.869-2.383v-5.613h-3.118v-2.56h2.027c.49 0 .839-.097 1.047-.29.208-.193.312-.55.312-1.07v-2.694h3.029v4.053h4.476v2.562h-4.476v6.37h4.476v2.56h-4.254zM164.893 27.194c-1.93 0-3.392-.535-4.387-1.604-.995-1.069-1.492-2.524-1.492-4.365 0-.936.126-1.774.378-2.517.268-.757.639-1.396 1.114-1.915a4.653 4.653 0 0 1 1.759-1.203c.698-.282 1.478-.423 2.339-.423s1.633.141 2.316.423a4.698 4.698 0 0 1 1.737 1.158c.475.505.839 1.121 1.092 1.849.267.712.401 1.514.401 2.405v.98h-7.862v.2c0 .743.23 1.344.69 1.805.46.445 1.136.668 2.027.668.683 0 1.269-.127 1.759-.379.49-.267.913-.616 1.27-1.047l1.781 1.938c-.445.55-1.069 1.024-1.87 1.425-.802.401-1.819.602-3.052.602zm-.267-9.666c-.713 0-1.284.222-1.715.668-.416.43-.623 1.017-.623 1.76v.178h4.632v-.179c0-.757-.208-1.35-.623-1.781-.401-.431-.958-.646-1.671-.646zM178.404 27.194c-.906 0-1.723-.134-2.45-.401a5.144 5.144 0 0 1-1.826-1.203 5.367 5.367 0 0 1-1.136-1.893c-.268-.742-.401-1.581-.401-2.517 0-.935.133-1.774.401-2.516a5.367 5.367 0 0 1 1.136-1.894 4.901 4.901 0 0 1 1.826-1.18c.727-.282 1.537-.423 2.427-.423 1.263 0 2.272.26 3.029.78a4.853 4.853 0 0 1 1.76 2.026l-2.539 1.381a3.312 3.312 0 0 0-.824-1.114c-.327-.296-.802-.445-1.426-.445-.757 0-1.343.223-1.759.668-.401.43-.601 1.025-.601 1.782v1.87c0 .758.2 1.36.601 1.805.416.43 1.017.646 1.804.646.638 0 1.136-.149 1.492-.446.371-.297.683-.683.936-1.158l2.494 1.425a5.062 5.062 0 0 1-1.826 2.05c-.787.504-1.827.757-3.118.757zM186.058 10.445h3.296v7.083h.133c.134-.327.297-.631.49-.913.193-.283.424-.528.691-.735.282-.223.601-.394.958-.513.371-.133.786-.2 1.247-.2.549 0 1.054.096 1.514.29.461.177.854.452 1.181.823.326.372.579.825.757 1.359.193.535.289 1.15.289 1.849v7.438h-3.296v-6.993c0-1.485-.646-2.227-1.937-2.227-.253 0-.505.037-.758.111-.237.06-.453.163-.646.312a1.55 1.55 0 0 0-.467.512 1.624 1.624 0 0 0-.156.735v7.55h-3.296v-16.48z" fill="#2E2E2E"/>
  <rect y="1" width="40" height="40" rx="20" fill="#23BC8E"/>
  <path fill-rule="evenodd" clip-rule="evenodd" d="M17.172 9.686a4 4 0 0 1 5.656 0l9.9 9.9-2.829 2.828-4.242-4.243-3.536 3.536-2.828-2.829 3.535-3.535L20 12.514l-4.95 4.95-2.828-2.828 4.95-4.95zm5.657 22.628a4 4 0 0 1-5.657 0l-9.9-9.9 2.829-2.828 4.242 4.243 3.536-3.536 2.828 2.829-3.535 3.535L20 29.485l4.95-4.95 2.829 2.83-4.95 4.949z" fill="#fff"/>
</svg>